[center][img]http://img542.imageshack.us/img542/5416/11e68d.jpg[/img]



[img]http://leetleech.org/images/48874973695367351744.png[/img]


Format                           : AVI
Format/Info                      : Audio Video Interleave
File size                        : 1.30 GiB
Duration                         : 1h 26mn
Overall bit rate                 : 2 151 Kbps
Writing application              : VirtualDubMod 1.5.10.3 | www.virtualdub-fr.org || (build 2550/release)
Writing library                  : VirtualDubMod build 2550/release

Video
ID                               : 0
Format                           : MPEG-4 Visual
Format profile                   : Advanced Simple@L5
Format settings, BVOP            : Yes
Format settings, QPel            : No
Format settings, GMC             : No warppoints
Format settings, Matrix          : Default (MPEG)
Muxing mode                      : Packed bitstream
Codec ID                         : XVID
Codec ID/Hint                    : XviD
Duration                         : 1h 26mn
Bit rate                         : 2 013 Kbps
Width                            : 720 pixels
Height                           : 304 pixels
Display aspect ratio             : 2.35:1
Frame rate                       : 25.000 fps
Color space                      : YUV
Chroma subsampling               : 4:2:0
Bit depth                        : 8 bits
Scan type                        : Progressive
Bits/(Pixel*Frame)               : 0.368
Stream size                      : 1.22 GiB (94%)
Writing library                  : XviD 61

Audio
ID                               : 1
Format                           : MPEG Audio
Format version                   : Version 1
Format profile                   : Layer 3
Mode                             : Joint stereo
Mode extension                   : MS Stereo
Codec ID                         : 55
Codec ID/Hint                    : MP3
Duration                         : 1h 26mn
Bit rate mode                    : Constant
Bit rate                         : 128 Kbps
Channel(s)                       : 2 channels
Sampling rate                    : 44.1 KHz
Stream size                      : 79.3 MiB (6%)
Alignment                        : Split accross interleaves
Interleave, duration             : 40 ms (1.00 video frame)
Interleave, preload duration     : 500 ms
Writing library                  : LAME3.98.4




[url]http://www.imdb.com/title/tt1436562/[/url]




[IMG]http://leetleech.org/images/89524873606771859129.png[/IMG]


Users: 7.4/10 (8,438 votes) 79 reviews | Critics: 130 reviews Metascore: 63/100 (based on 29 reviews from Metacritic.com)

When Blu, a domesticated macaw from small-town Minnesota, meets the fiercely independent Jewel, he takes off on an adventure to Rio de Janeiro with this bird of his dreams.
Director:
Carlos Saldanha
Writers:
Carlos Saldanha (story), Earl Richey Jones (story), and 5 more credits »
Stars:
Jesse Eisenberg, Anne Hathaway and George Lopez 



[img]http://leetleech.org/images/95521316153253938506.png[/img]




[img]http://img23.imageshack.us/img23/6244/vlcsnap2011050611h11m18.png[/img]

[img]http://img585.imageshack.us/img585/4562/vlcsnap2011050611h11m25.png[/img]

[img]http://img40.imageshack.us/img40/529/vlcsnap2011050611h11m12.png[/img]



VIDEO:Rio.DVD.R5.R.G.KINOPARK (IMAGiNE)  ............ Thanks

AUDIO:Rio ....IMAGiNE .............................................Thanks



Seriously cant say did a great deal on this one vid was already real good and before the moaners start the audio is good too thanks to IMAGiNE ...........Slight sharpen and contrast thats about it ...

Enjoy !


Greetz to Imagine ,Flawl3ss,DiLLoN,BDK,NOiR,TOXiCiNK,THC,Ez,Rx,Boobyblue,TaRiQ786,LKRG





[img]http://img411.imageshack.us/img411/6898/sig1n.jpg[/img]












[/center]